<svg width="14" height="14" viewBox="0 0 14 14" fill="none" xmlns="http://www.w3.org/2000/svg">
<path d="M2.33325 0.833313H11.6663C11.7105 0.833313 11.7532 0.850886 11.7844 0.882141C11.8157 0.913396 11.8333 0.956101 11.8333 1.00031V12.8333H13.0002C13.0443 12.8334 13.0863 12.8511 13.1174 12.8821C13.1487 12.9134 13.1663 12.9561 13.1663 13.0003C13.1662 13.0444 13.1486 13.0863 13.1174 13.1175C13.0863 13.1487 13.0443 13.1662 13.0002 13.1663H1.00024C0.95604 13.1663 0.913335 13.1487 0.88208 13.1175C0.851003 13.0863 0.833338 13.0443 0.833252 13.0003C0.833252 12.9561 0.850824 12.9134 0.88208 12.8821C0.913335 12.8509 0.95604 12.8333 1.00024 12.8333H2.16626V1.00031C2.16626 0.956179 2.18393 0.913382 2.21509 0.882141C2.24634 0.850885 2.28905 0.833313 2.33325 0.833313ZM2.50024 12.8333H5.50024V9.00031C5.50024 8.9561 5.51782 8.9134 5.54907 8.88214C5.58024 8.85106 5.62225 8.8334 5.66626 8.83331H8.33325C8.37745 8.83331 8.42016 8.85088 8.45142 8.88214C8.48257 8.91338 8.50024 8.95618 8.50024 9.00031V12.8333H11.5002V1.16632H2.50024V12.8333ZM5.83325 12.8333H8.16626V9.16632H5.83325V12.8333ZM5.00024 6.16632H5.66626C5.71039 6.16632 5.75318 6.18399 5.78442 6.21515C5.81568 6.24641 5.83325 6.28911 5.83325 6.33331C5.83325 6.37752 5.81568 6.42022 5.78442 6.45148C5.75318 6.48263 5.71039 6.50031 5.66626 6.50031H5.00024C4.95612 6.50031 4.91332 6.48263 4.88208 6.45148C4.85082 6.42022 4.83325 6.37752 4.83325 6.33331C4.83325 6.28911 4.85082 6.24641 4.88208 6.21515C4.91332 6.18399 4.95612 6.16632 5.00024 6.16632ZM8.33325 6.16632H9.00024C9.04418 6.16641 9.08628 6.18417 9.11743 6.21515C9.14869 6.24641 9.16626 6.28911 9.16626 6.33331C9.16626 6.37752 9.14869 6.42022 9.11743 6.45148C9.08628 6.48245 9.04418 6.50022 9.00024 6.50031H8.33325C8.28905 6.50031 8.24634 6.48273 8.21509 6.45148C8.18383 6.42022 8.16626 6.37752 8.16626 6.33331C8.16626 6.28911 8.18383 6.24641 8.21509 6.21515C8.24634 6.18389 8.28905 6.16632 8.33325 6.16632ZM5.00024 3.50031H5.66626C5.71046 3.50031 5.75317 3.51788 5.78442 3.54913C5.8155 3.5803 5.83317 3.62231 5.83325 3.66632C5.83325 3.71052 5.81568 3.75323 5.78442 3.78448C5.75317 3.81574 5.71046 3.83331 5.66626 3.83331H5.00024C4.95604 3.83331 4.91334 3.81574 4.88208 3.78448C4.85082 3.75323 4.83325 3.71052 4.83325 3.66632C4.83334 3.62231 4.851 3.5803 4.88208 3.54913C4.91334 3.51788 4.95604 3.50031 5.00024 3.50031ZM8.33325 3.50031H9.00024C9.04433 3.50039 9.08625 3.51795 9.11743 3.54913C9.14861 3.58031 9.16617 3.62224 9.16626 3.66632C9.16626 3.71052 9.14869 3.75323 9.11743 3.78448C9.08627 3.81556 9.04425 3.83323 9.00024 3.83331H8.33325C8.28905 3.83331 8.24634 3.81574 8.21509 3.78448C8.18393 3.75324 8.16626 3.71045 8.16626 3.66632C8.16635 3.62239 8.18411 3.58028 8.21509 3.54913C8.24634 3.51788 8.28905 3.50031 8.33325 3.50031Z" fill="black" stroke="#737373"/>
</svg>
