<svg width="22" height="22" viewBox="0 0 22 22" fill="none" xmlns="http://www.w3.org/2000/svg">
<path d="M18.6856 15.1557L16.5503 13.0204C16.4682 12.9377 16.3706 12.8721 16.2631 12.8273C16.1556 12.7825 16.0403 12.7594 15.9238 12.7594C15.8073 12.7594 15.692 12.7825 15.5845 12.8273C15.4769 12.8721 15.3793 12.9377 15.2973 13.0204L12.1385 16.1793C12.0567 16.2617 11.992 16.3595 11.9481 16.467C11.9042 16.5745 11.8819 16.6896 11.8826 16.8057V18.941C11.8826 19.1751 11.9756 19.3995 12.141 19.565C12.3065 19.7304 12.5309 19.8234 12.765 19.8234H14.9003C15.0164 19.8241 15.1315 19.8018 15.239 19.7579C15.3465 19.714 15.4443 19.6493 15.5267 19.5675L18.6856 16.4087C18.7683 16.3267 18.8339 16.2291 18.8787 16.1215C18.9235 16.014 18.9466 15.8987 18.9466 15.7822C18.9466 15.6657 18.9235 15.5504 18.8787 15.4429C18.8339 15.3354 18.7683 15.2378 18.6856 15.1557ZM14.5297 18.0587H13.6473V17.1763L15.9238 14.8999L16.8061 15.7822L14.5297 18.0587ZM9.23555 18.0587H5.70614C5.47213 18.0587 5.2477 17.9657 5.08222 17.8002C4.91675 17.6348 4.82379 17.4103 4.82379 17.1763V4.82339C4.82379 4.58937 4.91675 4.36495 5.08222 4.19947C5.2477 4.034 5.47213 3.94104 5.70614 3.94104H10.1179V6.5881C10.1179 7.29014 10.3968 7.96343 10.8932 8.45985C11.3896 8.95627 12.0629 9.23515 12.765 9.23515H15.412V10.1175C15.412 10.3515 15.505 10.576 15.6705 10.7414C15.8359 10.9069 16.0604 10.9999 16.2944 10.9999C16.5284 10.9999 16.7528 10.9069 16.9183 10.7414C17.0838 10.576 17.1767 10.3515 17.1767 10.1175V8.3528C17.1767 8.3528 17.1767 8.3528 17.1767 8.29986C17.1675 8.2188 17.1498 8.13895 17.1238 8.06163V7.98221C17.0814 7.89149 17.0248 7.80809 16.9561 7.73515L11.662 2.44104C11.5891 2.3724 11.5057 2.31581 11.415 2.27339C11.3886 2.26965 11.3619 2.26965 11.3356 2.27339L11.0532 2.17633H5.70614C5.0041 2.17633 4.33081 2.45522 3.83439 2.95164C3.33797 3.44806 3.05908 4.12135 3.05908 4.82339V17.1763C3.05908 17.8784 3.33797 18.5517 3.83439 19.0481C4.33081 19.5445 5.0041 19.8234 5.70614 19.8234H9.23555C9.46957 19.8234 9.694 19.7304 9.85947 19.565C10.0249 19.3995 10.1179 19.1751 10.1179 18.941C10.1179 18.707 10.0249 18.4826 9.85947 18.3171C9.694 18.1516 9.46957 18.0587 9.23555 18.0587ZM11.8826 5.18515L14.1679 7.47045H12.765C12.5309 7.47045 12.3065 7.37749 12.141 7.21201C11.9756 7.04654 11.8826 6.82211 11.8826 6.5881V5.18515ZM7.47085 12.7646H12.765C12.999 12.7646 13.2234 12.6716 13.3889 12.5061C13.5544 12.3407 13.6473 12.1162 13.6473 11.8822C13.6473 11.6482 13.5544 11.4238 13.3889 11.2583C13.2234 11.0928 12.999 10.9999 12.765 10.9999H7.47085C7.23683 10.9999 7.0124 11.0928 6.84693 11.2583C6.68146 11.4238 6.58849 11.6482 6.58849 11.8822C6.58849 12.1162 6.68146 12.3407 6.84693 12.5061C7.0124 12.6716 7.23683 12.7646 7.47085 12.7646ZM7.47085 9.23515H8.3532C8.58721 9.23515 8.81164 9.14219 8.97712 8.97672C9.14259 8.81125 9.23555 8.58682 9.23555 8.3528C9.23555 8.11879 9.14259 7.89436 8.97712 7.72888C8.81164 7.56341 8.58721 7.47045 8.3532 7.47045H7.47085C7.23683 7.47045 7.0124 7.56341 6.84693 7.72888C6.68146 7.89436 6.58849 8.11879 6.58849 8.3528C6.58849 8.58682 6.68146 8.81125 6.84693 8.97672C7.0124 9.14219 7.23683 9.23515 7.47085 9.23515ZM9.23555 14.5293H7.47085C7.23683 14.5293 7.0124 14.6222 6.84693 14.7877C6.68146 14.9532 6.58849 15.1776 6.58849 15.4116C6.58849 15.6456 6.68146 15.8701 6.84693 16.0355C7.0124 16.201 7.23683 16.294 7.47085 16.294H9.23555C9.46957 16.294 9.694 16.201 9.85947 16.0355C10.0249 15.8701 10.1179 15.6456 10.1179 15.4116C10.1179 15.1776 10.0249 14.9532 9.85947 14.7877C9.694 14.6222 9.46957 14.5293 9.23555 14.5293Z" fill="white"/>
</svg>
