<svg width="16" height="16" viewBox="0 0 16 16" fill="none" xmlns="http://www.w3.org/2000/svg">
<path d="M8 2.16797C7.71688 2.16798 7.44328 2.27032 7.23047 2.45703L3.23047 5.95703V5.95801C3.10602 6.06734 3.00589 6.20167 2.9375 6.35254C2.86912 6.5034 2.83322 6.66737 2.83301 6.83301V12.667C2.83309 12.9761 2.95631 13.2725 3.1748 13.4912C3.39358 13.71 3.6906 13.833 4 13.833H5.83301V10C5.83301 9.60227 5.99128 9.22074 6.27246 8.93945C6.55367 8.65824 6.93532 8.5001 7.33301 8.5H8.66699C9.06472 8.50007 9.4463 8.65821 9.72754 8.93945C10.0088 9.22074 10.167 9.60224 10.167 10V13.833H12C12.3094 13.833 12.6064 13.71 12.8252 13.4912C13.0437 13.2725 13.1669 12.9762 13.167 12.667V6.83301L13.1602 6.70898C13.1469 6.58598 13.1138 6.46569 13.0625 6.35254C12.9942 6.20183 12.8948 6.06727 12.7705 5.95801L12.7695 5.95703L8.76953 2.45703C8.55672 2.27034 8.28311 2.16797 8 2.16797ZM7.33301 8.83301C7.02387 8.83311 6.72746 8.95629 6.50879 9.1748C6.29 9.3936 6.16699 9.69058 6.16699 10V13.833H9.83301V10C9.83301 9.69058 9.71 9.3936 9.49121 9.1748C9.27252 8.9563 8.97615 8.83308 8.66699 8.83301H7.33301ZM2.5 6.83594C2.49832 6.62291 2.54173 6.41161 2.62793 6.2168C2.71414 6.02204 2.84125 5.84804 3 5.70605L2.99902 5.70508L6.99609 2.20312L7 2.19922C7.27499 1.95327 7.63107 1.8174 8 1.81738C8.36892 1.81738 8.725 1.9533 9 2.19922L9.00391 2.20312L13 5.70508V5.70605C13.1582 5.84753 13.2849 6.02091 13.3711 6.21484C13.4573 6.40875 13.501 6.61887 13.5 6.83105V12.667C13.4999 13.0647 13.3418 13.4463 13.0605 13.7275C12.7793 14.0087 12.3977 14.167 12 14.167H4C3.60226 14.167 3.22073 14.0087 2.93945 13.7275C2.65822 13.4463 2.50009 13.0647 2.5 12.667V6.83594Z" fill="#737373" stroke="#737373"/>
</svg>
