<svg width="16" height="16" viewBox="0 0 16 16" fill="none" xmlns="http://www.w3.org/2000/svg">
<path d="M11.333 0.666992C11.5098 0.666992 11.6797 0.73728 11.8047 0.862305C11.9295 0.987237 11.9999 1.15639 12 1.33301V2H12.667C13.1973 2.00009 13.7061 2.21094 14.0811 2.58594C14.456 2.96099 14.667 3.46964 14.667 4V13.333C14.667 13.8633 14.4559 14.372 14.0811 14.7471C13.7061 15.1221 13.1973 15.3329 12.667 15.333H3.33301C2.80269 15.3329 2.29394 15.1221 1.91895 14.7471C1.54408 14.372 1.33301 13.8633 1.33301 13.333V4C1.33301 3.46964 1.54397 2.96099 1.91895 2.58594C2.29394 2.21094 2.80269 2.00009 3.33301 2H4V1.33301C4.00009 1.15639 4.07047 0.987237 4.19531 0.862305C4.32034 0.73728 4.49018 0.666992 4.66699 0.666992C4.84369 0.667078 5.01275 0.737357 5.1377 0.862305C5.26264 0.987252 5.33292 1.15631 5.33301 1.33301V2H10.667V1.33301C10.6671 1.15631 10.7374 0.987252 10.8623 0.862305C10.9873 0.737357 11.1563 0.667078 11.333 0.666992ZM2.66699 13.333C2.66699 13.5098 2.73728 13.6797 2.8623 13.8047C2.98724 13.9295 3.15639 13.9999 3.33301 14H12.667C12.8436 13.9999 13.0128 13.9295 13.1377 13.8047C13.2627 13.6797 13.333 13.5098 13.333 13.333V7.33301H2.66699V13.333ZM8.77734 8.92285C9.05086 8.64089 9.49405 8.6409 9.76758 8.92285C10.0411 9.20508 10.0411 9.66309 9.76758 9.94531L8.99023 10.7471L9.89551 11.6807C10.1691 11.9629 10.1691 12.4209 9.89551 12.7031C9.62196 12.9849 9.17872 12.9851 8.90527 12.7031L8 11.7686L7.09473 12.7031C6.82115 12.9852 6.37705 12.9853 6.10352 12.7031C5.83005 12.4209 5.83012 11.9629 6.10352 11.6807L7.00977 10.7471L6.23242 9.94531C5.95885 9.66309 5.95885 9.20508 6.23242 8.92285C6.50596 8.64091 6.94915 8.64086 7.22266 8.92285L8 9.72461L8.77734 8.92285ZM3.33301 3.33301C3.15647 3.33309 2.98722 3.40358 2.8623 3.52832C2.73728 3.65334 2.66699 3.82319 2.66699 4V6H13.333V4C13.333 3.82319 13.2627 3.65334 13.1377 3.52832C13.0128 3.40358 12.8435 3.33309 12.667 3.33301H12V4C12 4.17681 11.9297 4.34666 11.8047 4.47168C11.6797 4.5966 11.5097 4.66699 11.333 4.66699C11.1565 4.66691 10.9872 4.59642 10.8623 4.47168C10.7373 4.34666 10.667 4.17681 10.667 4V3.33301H5.33301V4C5.33301 4.17681 5.26272 4.34666 5.1377 4.47168C5.01278 4.59642 4.84353 4.66691 4.66699 4.66699C4.49026 4.66699 4.32032 4.5966 4.19531 4.47168C4.07029 4.34666 4 4.17681 4 4V3.33301H3.33301Z" fill="#737373"/>
</svg>
