<svg width="20" height="20" viewBox="0 0 20 20" fill="none" xmlns="http://www.w3.org/2000/svg">
<path d="M8.92984 6.99698C9.92374 6.96114 10.8939 7.30153 11.6486 7.94815C11.696 7.99893 11.7418 8.05141 11.7843 8.10635L11.8058 8.13272L11.8302 8.15714C11.9251 8.25001 11.9792 8.37692 11.9806 8.50967C11.982 8.64234 11.9308 8.77029 11.838 8.86514C11.7452 8.95997 11.6182 9.01407 11.4855 9.01553C11.3529 9.01694 11.2249 8.96568 11.13 8.87296L11.1154 8.85831L11.0998 8.84561L10.9796 8.746C10.4176 8.2458 9.68637 7.97798 8.93375 7.99796C8.17456 8.01811 7.45234 8.32924 6.91617 8.8671L2.37613 13.4169C1.81847 13.9748 1.50504 14.7316 1.50504 15.5204C1.50514 16.3093 1.81833 17.0661 2.37613 17.6239C2.93394 18.1817 3.6908 18.4949 4.47964 18.495C5.26615 18.495 6.01991 18.1824 6.5773 17.6278L6.57828 17.6288L8.32242 15.9325C8.41936 15.8557 8.54158 15.8171 8.66519 15.8251C8.79124 15.8333 8.90949 15.8895 8.99625 15.9814C9.08285 16.0731 9.13194 16.194 9.13297 16.3202C9.13391 16.4459 9.08666 16.5671 9.00211 16.6601L7.29019 18.3319C6.53575 19.0197 5.54562 19.3916 4.52457 19.37C3.49851 19.3482 2.52078 18.9307 1.79507 18.205C1.06938 17.4793 0.651841 16.5015 0.630035 15.4755C0.608389 14.453 0.980484 13.4608 1.67007 12.706L6.26187 8.16592L6.2648 8.16299C6.97319 7.4506 7.92584 7.03325 8.92984 6.99698ZM15.5246 0.504791C16.5782 0.504791 17.5896 0.921434 18.3371 1.66397C19.0729 2.4158 19.4814 3.42828 19.4748 4.48038C19.468 5.53403 19.0454 6.54233 18.298 7.28506L18.2961 7.28604L13.7462 11.8368C13.0366 12.5475 12.0839 12.9627 11.0802 12.9989C10.0766 13.0352 9.09614 12.6898 8.33707 12.0321L8.32535 12.0224L8.13785 11.8505L8.13004 11.8427L8.06656 11.7675C8.01113 11.6864 7.9807 11.5898 7.97964 11.4901C7.97828 11.3574 8.02938 11.2295 8.12222 11.1347C8.2151 11.0398 8.34201 10.9857 8.47476 10.9843C8.6074 10.9829 8.7354 11.0341 8.83023 11.1269L8.84488 11.1415L8.85953 11.1542L8.97964 11.2538V11.2528C9.54182 11.7536 10.2735 12.0219 11.0265 12.0019C11.6906 11.9842 12.3264 11.7441 12.8341 11.3241L13.0441 11.1327L17.5841 6.58292L17.5832 6.58194C18.1406 6.02419 18.4551 5.26894 18.4552 4.48038C18.4552 3.6914 18.141 2.93476 17.5832 2.37686C17.0253 1.81896 16.2686 1.50479 15.4796 1.50479C14.6911 1.50488 13.9349 1.81846 13.3771 2.37589L11.675 4.06729C11.5783 4.14329 11.4581 4.18261 11.3351 4.17471C11.2091 4.16661 11.0908 4.11111 11.0041 4.01944C10.9173 3.92759 10.8683 3.80595 10.8673 3.6796C10.8664 3.55489 10.912 3.43439 10.9953 3.34171L12.7091 1.66788L12.7121 1.66495C13.4595 0.922149 14.4708 0.504903 15.5246 0.504791Z" fill="#999999" stroke="#999999"/>
</svg>
