<svg width="20" height="20" viewBox="0 0 20 20" fill="none" xmlns="http://www.w3.org/2000/svg">
<path d="M12 9.51001H14.42C14.5516 9.51077 14.6821 9.48555 14.8039 9.43578C14.9257 9.38602 15.0366 9.31269 15.13 9.22001L19.71 4.64001C19.8037 4.54705 19.8781 4.43645 19.9289 4.31459C19.9797 4.19273 20.0058 4.06202 20.0058 3.93001C20.0058 3.798 19.9797 3.66729 19.9289 3.54543C19.8781 3.42357 19.8037 3.31297 19.71 3.22001L17.29 0.80001C17.197 0.706281 17.0864 0.631887 16.9646 0.581118C16.8427 0.53035 16.712 0.504211 16.58 0.504211C16.448 0.504211 16.3173 0.53035 16.1954 0.581118C16.0736 0.631887 15.963 0.706281 15.87 0.80001L11.29 5.38001C11.1073 5.57164 11.0037 5.82524 11 6.09001V8.51001C11 8.77523 11.1054 9.02958 11.2929 9.21712C11.4804 9.40465 11.7348 9.51001 12 9.51001ZM13 6.51001L16.58 2.93001L17.58 3.93001L14 7.51001H13V6.51001ZM19 8.51001C18.7348 8.51001 18.4804 8.61537 18.2929 8.8029C18.1054 8.99044 18 9.24479 18 9.51001V16.51C18 16.7752 17.8946 17.0296 17.7071 17.2171C17.5196 17.4047 17.2652 17.51 17 17.51H3C2.73478 17.51 2.48043 17.4047 2.29289 17.2171C2.10536 17.0296 2 16.7752 2 16.51V6.90001L7.88 12.79C8.15906 13.0727 8.49149 13.2972 8.85799 13.4504C9.22449 13.6036 9.61777 13.6825 10.015 13.6825C10.4122 13.6825 10.8055 13.6036 11.172 13.4504C11.5385 13.2972 11.8709 13.0727 12.15 12.79C12.3332 12.6031 12.4359 12.3518 12.4359 12.09C12.4359 11.8283 12.3332 11.5769 12.15 11.39C12.0569 11.2948 11.9456 11.2191 11.8229 11.1674C11.7001 11.1157 11.5682 11.0891 11.435 11.0891C11.3018 11.0891 11.1699 11.1157 11.0471 11.1674C10.9244 11.2191 10.8131 11.2948 10.72 11.39C10.5331 11.5732 10.2818 11.6759 10.02 11.6759C9.75825 11.6759 9.50693 11.5732 9.32 11.39L3.41 5.49001H8C8.26522 5.49001 8.51957 5.38465 8.70711 5.19712C8.89464 5.00958 9 4.75523 9 4.49001C9 4.22479 8.89464 3.97044 8.70711 3.7829C8.51957 3.59537 8.26522 3.49001 8 3.49001H3C2.20435 3.49001 1.44129 3.80608 0.87868 4.36869C0.316071 4.9313 0 5.69436 0 6.49001V16.49C0 17.2857 0.316071 18.0487 0.87868 18.6113C1.44129 19.1739 2.20435 19.49 3 19.49H17C17.7956 19.49 18.5587 19.1739 19.1213 18.6113C19.6839 18.0487 20 17.2857 20 16.49V9.49001C20 9.22479 19.8946 8.97044 19.7071 8.7829C19.5196 8.59537 19.2652 8.49001 19 8.49001V8.51001Z" fill="#CF6D16"/>
</svg>
