<svg width="20" height="21" viewBox="0 0 20 21" fill="none" xmlns="http://www.w3.org/2000/svg">
<path d="M12 6.5H13C13.2652 6.5 13.5196 6.39464 13.7071 6.20711C13.8946 6.01957 14 5.76522 14 5.5C14 5.23478 13.8946 4.98043 13.7071 4.79289C13.5196 4.60536 13.2652 4.5 13 4.5H12C11.7348 4.5 11.4804 4.60536 11.2929 4.79289C11.1054 4.98043 11 5.23478 11 5.5C11 5.76522 11.1054 6.01957 11.2929 6.20711C11.4804 6.39464 11.7348 6.5 12 6.5ZM12 10.5H13C13.2652 10.5 13.5196 10.3946 13.7071 10.2071C13.8946 10.0196 14 9.76522 14 9.5C14 9.23478 13.8946 8.98043 13.7071 8.79289C13.5196 8.60536 13.2652 8.5 13 8.5H12C11.7348 8.5 11.4804 8.60536 11.2929 8.79289C11.1054 8.98043 11 9.23478 11 9.5C11 9.76522 11.1054 10.0196 11.2929 10.2071C11.4804 10.3946 11.7348 10.5 12 10.5ZM7 6.5H8C8.26522 6.5 8.51957 6.39464 8.70711 6.20711C8.89464 6.01957 9 5.76522 9 5.5C9 5.23478 8.89464 4.98043 8.70711 4.79289C8.51957 4.60536 8.26522 4.5 8 4.5H7C6.73478 4.5 6.48043 4.60536 6.29289 4.79289C6.10536 4.98043 6 5.23478 6 5.5C6 5.76522 6.10536 6.01957 6.29289 6.20711C6.48043 6.39464 6.73478 6.5 7 6.5ZM7 10.5H8C8.26522 10.5 8.51957 10.3946 8.70711 10.2071C8.89464 10.0196 9 9.76522 9 9.5C9 9.23478 8.89464 8.98043 8.70711 8.79289C8.51957 8.60536 8.26522 8.5 8 8.5H7C6.73478 8.5 6.48043 8.60536 6.29289 8.79289C6.10536 8.98043 6 9.23478 6 9.5C6 9.76522 6.10536 10.0196 6.29289 10.2071C6.48043 10.3946 6.73478 10.5 7 10.5ZM19 18.5H18V1.5C18 1.23478 17.8946 0.98043 17.7071 0.792893C17.5196 0.605357 17.2652 0.5 17 0.5H3C2.73478 0.5 2.48043 0.605357 2.29289 0.792893C2.10536 0.98043 2 1.23478 2 1.5V18.5H1C0.734784 18.5 0.48043 18.6054 0.292893 18.7929C0.105357 18.9804 0 19.2348 0 19.5C0 19.7652 0.105357 20.0196 0.292893 20.2071C0.48043 20.3946 0.734784 20.5 1 20.5H19C19.2652 20.5 19.5196 20.3946 19.7071 20.2071C19.8946 20.0196 20 19.7652 20 19.5C20 19.2348 19.8946 18.9804 19.7071 18.7929C19.5196 18.6054 19.2652 18.5 19 18.5ZM11 18.5H9V14.5H11V18.5ZM16 18.5H13V13.5C13 13.2348 12.8946 12.9804 12.7071 12.7929C12.5196 12.6054 12.2652 12.5 12 12.5H8C7.73478 12.5 7.48043 12.6054 7.29289 12.7929C7.10536 12.9804 7 13.2348 7 13.5V18.5H4V2.5H16V18.5Z" fill="#737373"/>
</svg>
