<svg width="16" height="18" viewBox="0 0 16 18" fill="none" xmlns="http://www.w3.org/2000/svg">
<path d="M14.6593 0.668335C14.5499 0.668273 14.4415 0.689785 14.3404 0.731642C14.2392 0.773498 14.1473 0.834879 14.0699 0.912273C13.9926 0.989668 13.9312 1.08156 13.8893 1.18269C13.8475 1.28382 13.8259 1.39222 13.826 1.50167V2.03227C13.1232 2.90369 12.2349 3.60743 11.2258 4.09227C10.2167 4.57711 9.1122 4.83084 7.99268 4.835H2.99268C2.32986 4.83572 1.69439 5.09935 1.22571 5.56803C0.757024 6.03672 0.493399 6.67218 0.492676 7.335V9.00167C0.493399 9.66449 0.757024 10.3 1.22571 10.7686C1.69439 11.2373 2.32986 11.5009 2.99268 11.5017H3.39583L1.39356 16.1737C1.33915 16.3004 1.31706 16.4386 1.32927 16.576C1.34148 16.7134 1.38762 16.8455 1.46354 16.9607C1.53945 17.0758 1.64277 17.1703 1.76422 17.2356C1.88566 17.3009 2.02144 17.3351 2.15934 17.335H5.49268C5.6558 17.3351 5.81536 17.2872 5.95151 17.1974C6.08767 17.1075 6.19441 16.9797 6.25847 16.8296L8.52826 11.5333C9.55379 11.6086 10.553 11.8934 11.4642 12.3699C12.3754 12.8465 13.1792 13.5048 13.826 14.3042V14.835C13.826 15.056 13.9138 15.268 14.0701 15.4243C14.2264 15.5805 14.4383 15.6683 14.6593 15.6683C14.8804 15.6683 15.0923 15.5805 15.2486 15.4243C15.4049 15.268 15.4927 15.056 15.4927 14.835V1.50167C15.4927 1.39222 15.4712 1.28382 15.4294 1.18269C15.3875 1.08156 15.3261 0.989666 15.2487 0.912271C15.1713 0.834876 15.0795 0.773496 14.9783 0.731639C14.8772 0.689783 14.7688 0.668272 14.6593 0.668335ZM2.99268 9.835C2.77171 9.83485 2.55983 9.74701 2.40358 9.59076C2.24734 9.43451 2.15949 9.22264 2.15934 9.00167V7.335C2.15949 7.11403 2.24734 6.90216 2.40359 6.74591C2.55983 6.58966 2.77171 6.50182 2.99268 6.50167H3.82601V9.835H2.99268ZM4.94336 15.6683H3.42318L5.20866 11.5017H6.72884L4.94336 15.6683ZM13.826 11.9365C12.1829 10.5829 10.1216 9.84023 7.99268 9.83496H5.49268V6.50163H7.99268C10.1216 6.49619 12.1829 5.75342 13.826 4.39968V11.9365Z" fill="#999999"/>
</svg>
