<svg width="22" height="22" viewBox="0 0 22 22" fill="none" xmlns="http://www.w3.org/2000/svg">
<path d="M5.04159 16.0417H3.66659V5.95837H10.8166L10.0833 6.68253C9.91064 6.85393 9.81318 7.08688 9.81233 7.33013C9.81147 7.57338 9.90727 7.80701 10.0787 7.97962C10.2501 8.15223 10.483 8.24968 10.7263 8.25054C10.9695 8.2514 11.2031 8.1556 11.3758 7.9842L13.6674 5.69253C13.7533 5.60732 13.8215 5.50593 13.8681 5.39423C13.9146 5.28253 13.9386 5.16271 13.9386 5.0417C13.9386 4.92069 13.9146 4.80088 13.8681 4.68917C13.8215 4.57747 13.7533 4.47608 13.6674 4.39087L11.3758 2.0992C11.204 1.92847 10.9717 1.83264 10.7295 1.83264C10.4873 1.83264 10.255 1.92847 10.0833 2.0992C9.99733 2.18442 9.92914 2.2858 9.8826 2.39751C9.83606 2.50921 9.8121 2.62902 9.8121 2.75003C9.8121 2.87105 9.83606 2.99086 9.8826 3.10256C9.92914 3.21427 9.99733 3.31565 10.0833 3.40087L10.8074 4.12503H2.74992C2.5068 4.12503 2.27365 4.22161 2.10174 4.39352C1.92983 4.56543 1.83325 4.79859 1.83325 5.0417V16.9584C1.83325 17.2015 1.92983 17.4346 2.10174 17.6066C2.27365 17.7785 2.5068 17.875 2.74992 17.875H5.04159C5.2847 17.875 5.51786 17.7785 5.68977 17.6066C5.86167 17.4346 5.95825 17.2015 5.95825 16.9584C5.95825 16.7153 5.86167 16.4821 5.68977 16.3102C5.51786 16.1383 5.2847 16.0417 5.04159 16.0417ZM19.2499 4.12503H16.9583C16.7151 4.12503 16.482 4.22161 16.3101 4.39352C16.1382 4.56543 16.0416 4.79859 16.0416 5.0417C16.0416 5.28482 16.1382 5.51797 16.3101 5.68988C16.482 5.86179 16.7151 5.95837 16.9583 5.95837H18.3333V16.0417H10.6608L11.3849 15.3175C11.4708 15.2323 11.539 15.1309 11.5856 15.0192C11.6321 14.9075 11.6561 14.7877 11.6561 14.6667C11.6561 14.5457 11.6321 14.4259 11.5856 14.3142C11.539 14.2025 11.4708 14.1011 11.3849 14.0159C11.2132 13.8451 10.9808 13.7493 10.7387 13.7493C10.4965 13.7493 10.2642 13.8451 10.0924 14.0159L7.80075 16.3075C7.71483 16.3928 7.64664 16.4941 7.6001 16.6058C7.55356 16.7175 7.5296 16.8374 7.5296 16.9584C7.5296 17.0794 7.55356 17.1992 7.6001 17.3109C7.64664 17.4226 7.71483 17.524 7.80075 17.6092L10.0924 19.9009C10.265 20.0723 10.4987 20.1681 10.7419 20.1672C10.9852 20.1664 11.2181 20.0689 11.3895 19.8963C11.5609 19.7237 11.6567 19.49 11.6558 19.2468C11.655 19.0035 11.5575 18.7706 11.3849 18.5992L10.6608 17.875H19.2499C19.493 17.875 19.7262 17.7785 19.8981 17.6066C20.07 17.4346 20.1666 17.2015 20.1666 16.9584V5.0417C20.1666 4.79859 20.07 4.56543 19.8981 4.39352C19.7262 4.22161 19.493 4.12503 19.2499 4.12503Z" fill="#29B6F6"/>
</svg>
