<svg width="25" height="32" viewBox="0 0 25 32" fill="none" xmlns="http://www.w3.org/2000/svg">
<circle cx="12.5" cy="19.9403" r="11.5" fill="#CFE4F4" stroke="white"/>
<path d="M13.75 17.4403H14.375C14.5408 17.4403 14.6997 17.3745 14.8169 17.2572C14.9342 17.14 15 16.9811 15 16.8153C15 16.6495 14.9342 16.4906 14.8169 16.3734C14.6997 16.2562 14.5408 16.1903 14.375 16.1903H13.75C13.5842 16.1903 13.4253 16.2562 13.3081 16.3734C13.1908 16.4906 13.125 16.6495 13.125 16.8153C13.125 16.9811 13.1908 17.14 13.3081 17.2572C13.4253 17.3745 13.5842 17.4403 13.75 17.4403V17.4403ZM13.75 19.9403H14.375C14.5408 19.9403 14.6997 19.8745 14.8169 19.7572C14.9342 19.64 15 19.4811 15 19.3153C15 19.1495 14.9342 18.9906 14.8169 18.8734C14.6997 18.7562 14.5408 18.6903 14.375 18.6903H13.75C13.5842 18.6903 13.4253 18.7562 13.3081 18.8734C13.1908 18.9906 13.125 19.1495 13.125 19.3153C13.125 19.4811 13.1908 19.64 13.3081 19.7572C13.4253 19.8745 13.5842 19.9403 13.75 19.9403V19.9403ZM10.625 17.4403H11.25C11.4158 17.4403 11.5747 17.3745 11.6919 17.2572C11.8092 17.14 11.875 16.9811 11.875 16.8153C11.875 16.6495 11.8092 16.4906 11.6919 16.3734C11.5747 16.2562 11.4158 16.1903 11.25 16.1903H10.625C10.4592 16.1903 10.3003 16.2562 10.1831 16.3734C10.0658 16.4906 10 16.6495 10 16.8153C10 16.9811 10.0658 17.14 10.1831 17.2572C10.3003 17.3745 10.4592 17.4403 10.625 17.4403V17.4403ZM10.625 19.9403H11.25C11.4158 19.9403 11.5747 19.8745 11.6919 19.7572C11.8092 19.64 11.875 19.4811 11.875 19.3153C11.875 19.1495 11.8092 18.9906 11.6919 18.8734C11.5747 18.7562 11.4158 18.6903 11.25 18.6903H10.625C10.4592 18.6903 10.3003 18.7562 10.1831 18.8734C10.0658 18.9906 10 19.1495 10 19.3153C10 19.4811 10.0658 19.64 10.1831 19.7572C10.3003 19.8745 10.4592 19.9403 10.625 19.9403V19.9403ZM18.125 24.9403H17.5V14.3153C17.5 14.1495 17.4342 13.9906 17.3169 13.8734C17.1997 13.7562 17.0408 13.6903 16.875 13.6903H8.125C7.95924 13.6903 7.80027 13.7562 7.68306 13.8734C7.56585 13.9906 7.5 14.1495 7.5 14.3153V24.9403H6.875C6.70924 24.9403 6.55027 25.0062 6.43306 25.1234C6.31585 25.2406 6.25 25.3995 6.25 25.5653C6.25 25.7311 6.31585 25.89 6.43306 26.0072C6.55027 26.1245 6.70924 26.1903 6.875 26.1903H18.125C18.2908 26.1903 18.4497 26.1245 18.5669 26.0072C18.6842 25.89 18.75 25.7311 18.75 25.5653C18.75 25.3995 18.6842 25.2406 18.5669 25.1234C18.4497 25.0062 18.2908 24.9403 18.125 24.9403ZM13.125 24.9403H11.875V22.4403H13.125V24.9403ZM16.25 24.9403H14.375V21.8153C14.375 21.6495 14.3092 21.4906 14.1919 21.3734C14.0747 21.2562 13.9158 21.1903 13.75 21.1903H11.25C11.0842 21.1903 10.9253 21.2562 10.8081 21.3734C10.6908 21.4906 10.625 21.6495 10.625 21.8153V24.9403H8.75V14.9403H16.25V24.9403Z" fill="#081743"/>
<circle cx="12.5" cy="5.94031" r="4.5" fill="#081743" stroke="white"/>
<g clip-path="url(#clip0_18_887)">
<path d="M12.5009 4.06407L12.5009 5.93907L14.1816 7.86023" stroke="white" stroke-linecap="round"/>
</g>
<defs>
<clipPath id="clip0_18_887">
<rect width="7.14286" height="7.14286" fill="white" transform="translate(8.92969 2.36804)"/>
</clipPath>
</defs>
</svg>
