<svg width="24" height="24" viewBox="0 0 24 24" fill="none" xmlns="http://www.w3.org/2000/svg">
<path d="M21.9006 15.3047V18.0039C21.9006 18.8323 21.229 19.5038 20.4006 19.5039H3.60083C2.7724 19.5039 2.10083 18.8323 2.10083 18.0039V15.3047H21.9006Z" stroke="#B3B3B3" stroke-width="1.8"/>
<path d="M19.2003 14.4055V6.00547C19.2003 4.67999 18.1258 3.60547 16.8003 3.60547H7.20029C5.87481 3.60547 4.80029 4.67999 4.80029 6.00547V14.4055" stroke="#B3B3B3" stroke-width="1.8"/>
<path d="M12.0009 12.0109H12.0072M10.2012 10.3142C10.6786 9.86429 11.3259 9.61154 12.0009 9.61154C12.6759 9.61154 13.3232 9.86429 13.8006 10.3142M8.40088 8.61686C8.87363 8.17113 9.43487 7.81756 10.0526 7.57633C10.6703 7.3351 11.3323 7.21094 12.0009 7.21094C12.6695 7.21094 13.3315 7.3351 13.9492 7.57633C14.5669 7.81756 15.1281 8.17113 15.6009 8.61686" stroke="#B3B3B3" stroke-width="1.2" stroke-linecap="round" stroke-linejoin="round"/>
</svg>
