<svg width="130" height="36" viewBox="0 0 130 36" fill="none" xmlns="http://www.w3.org/2000/svg">
<circle cx="17.42" cy="17.9981" r="17.42" fill="#102B7B"/>
<mask id="mask0_2_715" style="mask-type:alpha" maskUnits="userSpaceOnUse" x="0" y="0" width="35" height="36">
<circle cx="17.42" cy="17.9981" r="17.42" fill="#102B7B"/>
</mask>
<g mask="url(#mask0_2_715)">
<path d="M17.5616 18.8372C8.25686 18.8372 0.690887 23.9125 0.690887 30.1627C0.690887 33.0293 2.24168 35.6139 4.87332 37.5877C4.92031 37.6347 4.92031 37.6347 4.96731 37.6817C5.24927 37.8696 5.53123 38.0576 5.81319 38.2456C8.86778 40.2193 13.0032 41.4412 17.5616 41.4412C22.12 41.4412 26.3024 40.2193 29.31 38.2456C29.545 38.0106 29.8269 37.8226 30.1559 37.6817C30.2029 37.6347 30.2029 37.6347 30.2499 37.5877C32.8345 35.6139 34.4323 32.9823 34.4323 30.1627C34.3853 23.9125 26.8663 18.8372 17.5616 18.8372Z" fill="#2ECC71"/>
<path d="M30.8609 23.2546C30.6729 23.0666 30.4849 22.9256 30.25 22.7847C30.062 23.1136 29.827 23.3956 29.5921 23.6775C28.4172 24.8524 26.6784 25.3693 24.9867 24.8994C23.4359 24.4764 22.308 23.3016 21.8381 21.8918C21.9321 23.6305 23.5769 24.9464 25.2686 25.4163C26.9134 25.8862 29.3101 25.4633 30.3439 24.2415C32.6466 26.0742 34.1504 28.4239 34.3384 30.9616C34.3384 30.7266 34.3854 30.4916 34.3854 30.3036C34.3854 27.625 33.0696 25.1813 30.8609 23.2546Z" fill="#27C165"/>
<path d="M31.237 31.3376C27.9944 38.8095 8.2101 39.3265 3.83969 31.1026C3.83969 31.1026 8.82101 28.095 17.7498 28.095C26.2087 28.095 31.237 31.3376 31.237 31.3376Z" fill="url(#paint0_linear_2_715)"/>
<path d="M4.21541 23.2546C4.40338 23.0666 4.59136 22.9256 4.82633 22.7847C5.0143 23.1136 5.24927 23.3956 5.48424 23.6775C6.65908 24.8524 8.39784 25.3693 10.0896 24.8994C11.6404 24.4764 12.7682 23.3016 13.2382 21.8918C13.1442 23.6305 11.4994 24.9464 9.80765 25.4163C8.16287 25.8862 5.7662 25.4633 4.73234 24.2415C2.42965 26.0742 0.925857 28.4239 0.737882 30.9616C0.737882 30.7266 0.690887 30.4916 0.690887 30.3036C0.690887 27.625 2.00671 25.1813 4.21541 23.2546Z" fill="#27C165"/>
<path d="M17.562 20.059C18.9718 20.059 20.3816 20.1999 21.6974 20.3879C21.6974 19.965 21.7444 19.589 21.8384 19.1661C20.4756 18.9311 19.0188 18.7901 17.562 18.7901C16.0582 18.7901 14.6484 18.9311 13.2856 19.1661C13.3796 19.589 13.4266 19.965 13.4266 20.3879C14.7424 20.1999 16.1052 20.059 17.562 20.059Z" fill="#27C165"/>
<path d="M26.3495 25.0874C28.9189 25.0874 31.0019 23.0045 31.0019 20.435C31.0019 17.8656 28.9189 15.7827 26.3495 15.7827C23.7801 15.7827 21.6971 17.8656 21.6971 20.435C21.6971 23.0045 23.7801 25.0874 26.3495 25.0874Z" fill="#00993E"/>
<path d="M26.2087 24.7114C28.6743 24.7114 30.6731 22.7127 30.6731 20.247C30.6731 17.7814 28.6743 15.7827 26.2087 15.7827C23.7431 15.7827 21.7443 17.7814 21.7443 20.247C21.7443 22.7127 23.7431 24.7114 26.2087 24.7114Z" fill="#2ECC71"/>
<path d="M26.2086 23.9596C28.2589 23.9596 29.9211 22.2974 29.9211 20.2471C29.9211 18.1967 28.2589 16.5346 26.2086 16.5346C24.1582 16.5346 22.4961 18.1967 22.4961 20.2471C22.4961 22.2974 24.1582 23.9596 26.2086 23.9596Z" fill="url(#paint1_radial_2_715)"/>
<path d="M26.2081 19.2131C25.2213 19.2131 24.4224 19.965 24.3284 20.9519L25.4093 21.2338L24.4694 21.7978C24.7513 22.5027 25.4093 22.9726 26.2081 22.9726C27.242 22.9726 28.0879 22.1267 28.0879 21.0928C28.0879 20.059 27.242 19.2131 26.2081 19.2131Z" fill="#2A5351"/>
<path d="M24.3284 20.952C24.3284 20.999 24.3284 21.046 24.3284 21.0929C24.3284 21.3279 24.3754 21.6099 24.4694 21.7979L25.4093 21.2339L24.3284 20.952Z" fill="white"/>
<path d="M8.77413 25.0874C11.3436 25.0874 13.4265 23.0045 13.4265 20.4351C13.4265 17.8656 11.3436 15.7827 8.77413 15.7827C6.2047 15.7827 4.12177 17.8656 4.12177 20.4351C4.12177 23.0045 6.2047 25.0874 8.77413 25.0874Z" fill="#00993E"/>
<path d="M8.86826 24.7114C11.3339 24.7114 13.3327 22.7127 13.3327 20.247C13.3327 17.7814 11.3339 15.7827 8.86826 15.7827C6.40265 15.7827 4.40387 17.7814 4.40387 20.247C4.40387 22.7127 6.40265 24.7114 8.86826 24.7114Z" fill="#2ECC71"/>
<path d="M8.86813 23.9596C10.9185 23.9596 12.5806 22.2974 12.5806 20.2471C12.5806 18.1967 10.9185 16.5346 8.86813 16.5346C6.81778 16.5346 5.15564 18.1967 5.15564 20.2471C5.15564 22.2974 6.81778 23.9596 8.86813 23.9596Z" fill="url(#paint2_radial_2_715)"/>
<path d="M8.86772 19.2131C7.88086 19.2131 7.08196 19.965 6.98798 20.9519L8.06883 21.2338L7.12896 21.7978C7.41092 22.5027 8.06883 22.9726 8.86772 22.9726C9.90158 22.9726 10.7475 22.1267 10.7475 21.0928C10.7475 20.059 9.90158 19.2131 8.86772 19.2131Z" fill="#2A5351"/>
<path d="M6.98798 20.952C6.98798 20.999 6.98798 21.046 6.98798 21.0929C6.98798 21.3279 7.03497 21.6099 7.12896 21.7979L8.06883 21.2339L6.98798 20.952Z" fill="white"/>
<path d="M3.83969 31.3375C8.2101 41.8171 27.9944 41.2062 31.237 31.6195C26.3496 39.3264 10.0428 39.0445 3.83969 31.3375Z" fill="url(#paint3_linear_2_715)"/>
<path d="M31.237 31.3375C27.9944 38.8095 8.2101 39.3264 3.83969 31.1025" stroke="#00993E" stroke-width="0.533395" stroke-miterlimit="10"/>
<path d="M16.3195 24.6424C16.5716 24.6424 16.7759 24.4381 16.7759 24.1861C16.7759 23.934 16.5716 23.7297 16.3195 23.7297C16.0675 23.7297 15.8632 23.934 15.8632 24.1861C15.8632 24.4381 16.0675 24.6424 16.3195 24.6424Z" fill="#44A85F"/>
<path d="M18.9125 24.6424C19.1645 24.6424 19.3688 24.4381 19.3688 24.1861C19.3688 23.934 19.1645 23.7297 18.9125 23.7297C18.6604 23.7297 18.4561 23.934 18.4561 24.1861C18.4561 24.4381 18.6604 24.6424 18.9125 24.6424Z" fill="#44A85F"/>
<path d="M32.116 31.7867C32.1845 31.6468 31.8432 31.3391 31.3537 31.0994C30.8642 30.8596 30.4119 30.7786 30.3434 30.9185C30.2749 31.0583 30.6162 31.3661 31.1057 31.6058C31.5952 31.8456 32.0475 31.9266 32.116 31.7867Z" fill="#00993E"/>
<path d="M3.96653 31.3559C4.45602 31.1162 4.7973 30.8084 4.7288 30.6686C4.66029 30.5287 4.20795 30.6097 3.71846 30.8495C3.22896 31.0892 2.88769 31.397 2.95619 31.5368C3.02469 31.6767 3.47703 31.5957 3.96653 31.3559Z" fill="#00993E"/>
<path opacity="0.17" d="M32.1299 26.7791C32.597 26.7791 32.9758 26.4004 32.9758 25.9332C32.9758 25.4661 32.597 25.0873 32.1299 25.0873C31.6627 25.0873 31.284 25.4661 31.284 25.9332C31.284 26.4004 31.6627 26.7791 32.1299 26.7791Z" fill="#006D2C"/>
<path opacity="0.17" d="M3.04037 26.6381C3.50754 26.6381 3.88626 26.2594 3.88626 25.7922C3.88626 25.325 3.50754 24.9463 3.04037 24.9463C2.5732 24.9463 2.19449 25.325 2.19449 25.7922C2.19449 26.2594 2.5732 26.6381 3.04037 26.6381Z" fill="#006D2C"/>
</g>
<path d="M56.3175 10.0154H52.8988L48.1479 23.1834L43.4207 10.0154H39.9194L46.1203 26.5196H50.1166L56.3175 10.0154Z" fill="#333333"/>
<path d="M68.2219 15.0963H64.8503L61.8088 20.9671L58.673 15.0963H55.1836L60.1113 24.0911L56.1149 31.2822H59.4865L68.2219 15.0963Z" fill="#333333"/>
<path d="M79.7735 15.0963H76.7674V16.3577C76.0129 15.4264 74.9166 14.7898 73.3487 14.7898C70.2011 14.7898 67.8198 17.3715 67.8198 20.8021C67.8198 24.2326 70.2011 26.8143 73.3487 26.8143C74.9166 26.8143 76.0247 26.1777 76.7674 25.2582V26.5196H79.7735V15.0963ZM73.9145 17.6545C75.6711 17.6545 76.8617 18.9984 76.8617 20.8021C76.8617 22.6057 75.6711 23.9496 73.9145 23.9496C72.1109 23.9496 70.9674 22.5468 70.9674 20.8021C70.9674 19.0573 72.1109 17.6545 73.9145 17.6545Z" fill="#333333"/>
<path d="M86.6171 14.7898C83.8349 14.7898 81.3593 17.1122 81.3593 20.6252C81.3593 24.1265 83.8349 26.4488 86.6171 26.4488C88.1968 26.4488 89.3521 25.8594 90.1301 24.9045V25.7062C90.1301 27.6749 88.7862 28.7359 86.8764 28.7359C85.5089 28.7359 84.2475 28.3233 83.104 27.5688L82.0077 30.0798C83.2927 30.9875 85.2024 31.459 87.0061 31.459C90.7785 31.459 93.1716 29.2428 93.1716 25.5765V15.0963H90.1537V16.3695C89.3756 15.4028 88.2085 14.7898 86.6171 14.7898ZM87.3951 17.6191C89.1045 17.6191 90.2598 18.9159 90.2598 20.6252C90.2598 22.3228 89.1045 23.6196 87.3951 23.6196C85.6386 23.6196 84.5187 22.2756 84.5187 20.6252C84.5187 18.963 85.6386 17.6191 87.3951 17.6191Z" fill="#333333"/>
<path d="M106.184 15.0963H103.119V21.3797C103.119 23.207 102.105 23.9496 100.785 23.9496C99.4526 23.9496 98.4505 23.207 98.4505 21.3797V15.0963H95.3737V21.6508C95.3737 25.2582 97.9201 26.8143 100.785 26.8143C103.638 26.8143 106.184 25.2582 106.184 21.6508V15.0963Z" fill="#333333"/>
<path d="M116.673 15.0963H112.535V11.7012H109.459V15.0963H107.254V17.8313H109.459V22.2521C109.459 25.211 110.909 26.8143 113.738 26.8143C115.365 26.8143 116.52 26.2956 117.522 25.6118L116.39 23.207C115.766 23.5842 114.976 23.9496 114.245 23.9496C113.29 23.9496 112.535 23.4309 112.535 22.0045V17.8313H116.673V15.0963Z" fill="#333333"/>
<path d="M129.557 15.0963H126.551V16.3577C125.796 15.4264 124.7 14.7898 123.132 14.7898C119.984 14.7898 117.603 17.3715 117.603 20.8021C117.603 24.2326 119.984 26.8143 123.132 26.8143C124.7 26.8143 125.808 26.1777 126.551 25.2582V26.5196H129.557V15.0963ZM123.698 17.6545C125.454 17.6545 126.645 18.9984 126.645 20.8021C126.645 22.6057 125.454 23.9496 123.698 23.9496C121.894 23.9496 120.751 22.5468 120.751 20.8021C120.751 19.0573 121.894 17.6545 123.698 17.6545Z" fill="#333333"/>
<defs>
<linearGradient id="paint0_linear_2_715" x1="17.5428" y1="37.0905" x2="17.5428" y2="28.1126" gradientUnits="userSpaceOnUse">
<stop stop-color="#3BE07E"/>
<stop offset="0.0338869" stop-color="#3ADF7D"/>
<stop offset="0.5522" stop-color="#31D174"/>
<stop offset="1" stop-color="#2ECC71"/>
</linearGradient>
<radialGradient id="paint1_radial_2_715" cx="0" cy="0" r="1" gradientUnits="userSpaceOnUse" gradientTransform="translate(26.2136 20.2369) scale(3.71377)">
<stop offset="0.5167" stop-color="white"/>
<stop offset="0.737" stop-color="#F7F7F7"/>
<stop offset="1" stop-color="#E6E7E8"/>
</radialGradient>
<radialGradient id="paint2_radial_2_715" cx="0" cy="0" r="1" gradientUnits="userSpaceOnUse" gradientTransform="translate(8.87218 20.2369) rotate(180) scale(3.71376)">
<stop offset="0.5167" stop-color="white"/>
<stop offset="0.737" stop-color="#F7F7F7"/>
<stop offset="1" stop-color="#E6E7E8"/>
</radialGradient>
<linearGradient id="paint3_linear_2_715" x1="17.5428" y1="39.0262" x2="17.5428" y2="27.5341" gradientUnits="userSpaceOnUse">
<stop stop-color="#2ECC71"/>
<stop offset="0.3969" stop-color="#2AC66A"/>
<stop offset="1" stop-color="#27C165"/>
</linearGradient>
</defs>
</svg>
